<svg width="23" height="23" viewBox="0 0 23 23" fill="none" xmlns="http://www.w3.org/2000/svg">
<path d="M2.70588 23C1.96177 23 1.32453 22.7746 0.794178 22.3238C0.263826 21.873 -0.000899664 21.3317 2.29701e-06 20.7V5.75C2.29701e-06 5.42417 0.129885 5.15085 0.389649 4.93005C0.649414 4.70925 0.970512 4.59923 1.35294 4.6C1.73628 4.6 2.05783 4.7104 2.31759 4.9312C2.57735 5.152 2.70679 5.42493 2.70588 5.75V20.7H16.2353C16.6186 20.7 16.9402 20.8104 17.1999 21.0312C17.4597 21.252 17.5891 21.5249 17.5882 21.85C17.5882 22.1758 17.4584 22.4491 17.1986 22.6699C16.9388 22.8907 16.6177 23.0008 16.2353 23H2.70588ZM8.11765 18.4C7.37353 18.4 6.7363 18.1746 6.20594 17.7238C5.67559 17.273 5.41086 16.7317 5.41177 16.1V2.3C5.41177 1.6675 5.67694 1.12585 6.2073 0.675052C6.73765 0.224252 7.37443 -0.000764714 8.11765 1.95246e-06H20.2941C21.0382 1.95246e-06 21.6755 0.225402 22.2058 0.676202C22.7362 1.127 23.0009 1.66827 23 2.3V16.1C23 16.7325 22.7348 17.2741 22.2045 17.7249C21.6741 18.1757 21.0373 18.4008 20.2941 18.4H8.11765ZM8.11765 16.1H20.2941V2.3H8.11765V16.1Z" fill="white"/>
</svg>
